<svg width="55" height="16" viewBox="0 0 55 16" fill="none" xmlns="http://www.w3.org/2000/svg">
<path d="M9.01367 12.1787C9.01367 11.8467 8.96159 11.5537 8.85742 11.2998C8.75977 11.0394 8.58398 10.805 8.33008 10.5967C8.08268 10.3883 7.73763 10.1898 7.29492 10.001C6.85872 9.81217 6.30534 9.62012 5.63477 9.4248C4.93164 9.21647 4.29688 8.98535 3.73047 8.73145C3.16406 8.47103 2.67904 8.1748 2.27539 7.84277C1.87174 7.51074 1.5625 7.12988 1.34766 6.7002C1.13281 6.27051 1.02539 5.77897 1.02539 5.22559C1.02539 4.6722 1.13932 4.16113 1.36719 3.69238C1.59505 3.22363 1.92057 2.81673 2.34375 2.47168C2.77344 2.12012 3.28451 1.84668 3.87695 1.65137C4.4694 1.45605 5.13021 1.3584 5.85938 1.3584C6.92708 1.3584 7.83203 1.56348 8.57422 1.97363C9.32292 2.37728 9.89258 2.90788 10.2832 3.56543C10.6738 4.21647 10.8691 4.91309 10.8691 5.65527H8.99414C8.99414 5.12142 8.88021 4.64941 8.65234 4.23926C8.42448 3.82259 8.07943 3.49707 7.61719 3.2627C7.15495 3.02181 6.56901 2.90137 5.85938 2.90137C5.1888 2.90137 4.63542 3.00228 4.19922 3.2041C3.76302 3.40592 3.4375 3.67936 3.22266 4.02441C3.01432 4.36947 2.91016 4.76335 2.91016 5.20605C2.91016 5.50553 2.97201 5.77897 3.0957 6.02637C3.22591 6.26725 3.42448 6.49186 3.69141 6.7002C3.96484 6.90853 4.3099 7.10059 4.72656 7.27637C5.14974 7.45215 5.6543 7.62142 6.24023 7.78418C7.04753 8.01204 7.74414 8.26595 8.33008 8.5459C8.91602 8.82585 9.39779 9.1416 9.77539 9.49316C10.1595 9.83822 10.4427 10.2321 10.625 10.6748C10.8138 11.111 10.9082 11.6058 10.9082 12.1592C10.9082 12.7386 10.791 13.2627 10.5566 13.7314C10.3223 14.2002 9.98698 14.6006 9.55078 14.9326C9.11458 15.2646 8.59049 15.5218 7.97852 15.7041C7.37305 15.8799 6.69596 15.9678 5.94727 15.9678C5.28971 15.9678 4.64193 15.8766 4.00391 15.6943C3.3724 15.512 2.79622 15.2386 2.27539 14.874C1.76107 14.5094 1.34766 14.0602 1.03516 13.5264C0.729167 12.986 0.576172 12.361 0.576172 11.6514H2.45117C2.45117 12.1396 2.54557 12.5596 2.73438 12.9111C2.92318 13.2562 3.18034 13.5426 3.50586 13.7705C3.83789 13.9984 4.21224 14.1676 4.62891 14.2783C5.05208 14.3825 5.49154 14.4346 5.94727 14.4346C6.60482 14.4346 7.16146 14.3434 7.61719 14.1611C8.07292 13.9788 8.41797 13.7184 8.65234 13.3799C8.89323 13.0413 9.01367 12.641 9.01367 12.1787ZM17.4219 15.9678C16.6862 15.9678 16.0189 15.8441 15.4199 15.5967C14.8275 15.3428 14.3164 14.988 13.8867 14.5322C13.4635 14.0765 13.138 13.5361 12.9102 12.9111C12.6823 12.2861 12.5684 11.6025 12.5684 10.8604V10.4502C12.5684 9.59082 12.6953 8.82585 12.9492 8.15527C13.2031 7.47819 13.5482 6.90527 13.9844 6.43652C14.4206 5.96777 14.9154 5.61296 15.4688 5.37207C16.0221 5.13118 16.5951 5.01074 17.1875 5.01074C17.9427 5.01074 18.5938 5.14095 19.1406 5.40137C19.694 5.66178 20.1465 6.02637 20.498 6.49512C20.8496 6.95736 21.11 7.50423 21.2793 8.13574C21.4486 8.76074 21.5332 9.44434 21.5332 10.1865V10.9971H13.6426V9.52246H19.7266V9.38574C19.7005 8.91699 19.6029 8.46126 19.4336 8.01855C19.2708 7.57585 19.0104 7.21126 18.6523 6.9248C18.2943 6.63835 17.806 6.49512 17.1875 6.49512C16.7773 6.49512 16.3997 6.58301 16.0547 6.75879C15.7096 6.92806 15.4134 7.18197 15.166 7.52051C14.9186 7.85905 14.7266 8.27246 14.5898 8.76074C14.4531 9.24902 14.3848 9.81217 14.3848 10.4502V10.8604C14.3848 11.3617 14.4531 11.8337 14.5898 12.2764C14.7331 12.7126 14.9382 13.0967 15.2051 13.4287C15.4785 13.7607 15.8073 14.0212 16.1914 14.21C16.582 14.3988 17.0247 14.4932 17.5195 14.4932C18.1576 14.4932 18.6979 14.363 19.1406 14.1025C19.5833 13.8421 19.9707 13.4938 20.3027 13.0576L21.3965 13.9268C21.1686 14.2718 20.8789 14.6006 20.5273 14.9131C20.1758 15.2256 19.7428 15.4795 19.2285 15.6748C18.7207 15.8701 18.1185 15.9678 17.4219 15.9678ZM25.4492 7.46191V15.7725H23.6426V5.20605H25.3516L25.4492 7.46191ZM25.0195 10.0889L24.2676 10.0596C24.2741 9.33691 24.3815 8.6696 24.5898 8.05762C24.7982 7.43913 25.0911 6.90202 25.4688 6.44629C25.8464 5.99056 26.2956 5.639 26.8164 5.3916C27.3438 5.1377 27.9264 5.01074 28.5645 5.01074C29.0853 5.01074 29.554 5.08236 29.9707 5.22559C30.3874 5.3623 30.7422 5.58366 31.0352 5.88965C31.3346 6.19564 31.5625 6.59277 31.7188 7.08105C31.875 7.56283 31.9531 8.15202 31.9531 8.84863V15.7725H30.1367V8.8291C30.1367 8.27572 30.0553 7.83301 29.8926 7.50098C29.7298 7.16243 29.4922 6.91829 29.1797 6.76855C28.8672 6.6123 28.4831 6.53418 28.0273 6.53418C27.5781 6.53418 27.168 6.62858 26.7969 6.81738C26.4323 7.00618 26.1165 7.2666 25.8496 7.59863C25.5892 7.93066 25.3841 8.31152 25.2344 8.74121C25.0911 9.16439 25.0195 9.61361 25.0195 10.0889ZM36.5039 0.772461V15.7725H34.6973V0.772461H36.5039ZM36.0742 10.0889L35.3223 10.0596C35.3288 9.33691 35.4362 8.6696 35.6445 8.05762C35.8529 7.43913 36.1458 6.90202 36.5234 6.44629C36.901 5.99056 37.3503 5.639 37.8711 5.3916C38.3984 5.1377 38.9811 5.01074 39.6191 5.01074C40.14 5.01074 40.6087 5.08236 41.0254 5.22559C41.4421 5.3623 41.7969 5.58366 42.0898 5.88965C42.3893 6.19564 42.6172 6.59277 42.7734 7.08105C42.9297 7.56283 43.0078 8.15202 43.0078 8.84863V15.7725H41.1914V8.8291C41.1914 8.27572 41.11 7.83301 40.9473 7.50098C40.7845 7.16243 40.5469 6.91829 40.2344 6.76855C39.9219 6.6123 39.5378 6.53418 39.082 6.53418C38.6328 6.53418 38.2227 6.62858 37.8516 6.81738C37.487 7.00618 37.1712 7.2666 36.9043 7.59863C36.6439 7.93066 36.4388 8.31152 36.2891 8.74121C36.1458 9.16439 36.0742 9.61361 36.0742 10.0889ZM51.9434 13.9658V8.52637C51.9434 8.1097 51.8587 7.74837 51.6895 7.44238C51.5267 7.12988 51.2793 6.889 50.9473 6.71973C50.6152 6.55046 50.2051 6.46582 49.7168 6.46582C49.2611 6.46582 48.8607 6.54395 48.5156 6.7002C48.1771 6.85645 47.9102 7.06152 47.7148 7.31543C47.526 7.56934 47.4316 7.84277 47.4316 8.13574H45.625C45.625 7.75814 45.7227 7.38379 45.918 7.0127C46.1133 6.6416 46.3932 6.30632 46.7578 6.00684C47.1289 5.70085 47.5716 5.45996 48.0859 5.28418C48.6068 5.10189 49.1862 5.01074 49.8242 5.01074C50.5924 5.01074 51.2695 5.14095 51.8555 5.40137C52.4479 5.66178 52.9102 6.05566 53.2422 6.58301C53.5807 7.10384 53.75 7.75814 53.75 8.5459V13.4678C53.75 13.8193 53.7793 14.1937 53.8379 14.5908C53.903 14.988 53.9974 15.3298 54.1211 15.6162V15.7725H52.2363C52.1452 15.5641 52.0736 15.2874 52.0215 14.9424C51.9694 14.5908 51.9434 14.2653 51.9434 13.9658ZM52.2559 9.36621L52.2754 10.6357H50.4492C49.9349 10.6357 49.4759 10.6781 49.0723 10.7627C48.6686 10.8408 48.3301 10.9613 48.0566 11.124C47.7832 11.2868 47.5749 11.4919 47.4316 11.7393C47.2884 11.9801 47.2168 12.2633 47.2168 12.5889C47.2168 12.9209 47.2917 13.2236 47.4414 13.4971C47.5911 13.7705 47.8158 13.9886 48.1152 14.1514C48.4212 14.3076 48.7956 14.3857 49.2383 14.3857C49.7917 14.3857 50.2799 14.2686 50.7031 14.0342C51.1263 13.7998 51.4616 13.5133 51.709 13.1748C51.9629 12.8363 52.0996 12.5075 52.1191 12.1885L52.8906 13.0576C52.8451 13.3311 52.7214 13.6338 52.5195 13.9658C52.3177 14.2979 52.0475 14.6169 51.709 14.9229C51.377 15.2223 50.9798 15.473 50.5176 15.6748C50.0618 15.8701 49.5475 15.9678 48.9746 15.9678C48.2585 15.9678 47.6302 15.8278 47.0898 15.5479C46.556 15.2679 46.1393 14.8936 45.8398 14.4248C45.5469 13.9495 45.4004 13.4189 45.4004 12.833C45.4004 12.2666 45.5111 11.7686 45.7324 11.3389C45.9538 10.9027 46.2728 10.5413 46.6895 10.2549C47.1061 9.96191 47.6074 9.74056 48.1934 9.59082C48.7793 9.44108 49.4336 9.36621 50.1562 9.36621H52.2559Z" fill="white"/>
</svg>
